<svg width="190" height="49" viewBox="0 0 190 49" fill="none" xmlns="http://www.w3.org/2000/svg">
<path d="M1.76989 27V6.63636H9.80398C11.3419 6.63636 12.6544 6.91146 13.7415 7.46165C14.8352 8.00521 15.6671 8.77746 16.2372 9.77841C16.8139 10.7727 17.1023 11.9427 17.1023 13.2884C17.1023 14.6406 16.8106 15.804 16.2273 16.7784C15.6439 17.7462 14.7988 18.4886 13.6918 19.0057C12.5914 19.5227 11.259 19.7812 9.6946 19.7812H4.31534V16.321H8.99858C9.82055 16.321 10.5033 16.2083 11.0469 15.983C11.5904 15.7576 11.9948 15.4195 12.2599 14.9688C12.5317 14.518 12.6676 13.9579 12.6676 13.2884C12.6676 12.6122 12.5317 12.0421 12.2599 11.5781C11.9948 11.1141 11.5871 10.7628 11.0369 10.5241C10.4934 10.2789 9.80729 10.1562 8.97869 10.1562H6.07528V27H1.76989ZM12.767 17.733L17.8281 27H13.0753L8.12358 17.733H12.767ZM26.7795 27.2983C25.2085 27.2983 23.8562 26.9801 22.7227 26.3438C21.5958 25.7008 20.7274 24.7926 20.1175 23.6193C19.5077 22.4394 19.2028 21.044 19.2028 19.4332C19.2028 17.8622 19.5077 16.4834 20.1175 15.2969C20.7274 14.1103 21.5858 13.1856 22.6928 12.5227C23.8065 11.8598 25.1123 11.5284 26.6104 11.5284C27.618 11.5284 28.556 11.6908 29.4244 12.0156C30.2994 12.3338 31.0617 12.8144 31.7113 13.4574C32.3675 14.1004 32.878 14.9091 33.2425 15.8835C33.6071 16.8513 33.7894 17.9848 33.7894 19.2841V20.4474H20.8931V17.8224H29.8022C29.8022 17.2126 29.6696 16.6723 29.4045 16.2017C29.1393 15.7311 28.7714 15.3632 28.3008 15.098C27.8368 14.8262 27.2965 14.6903 26.68 14.6903C26.0371 14.6903 25.467 14.8395 24.9698 15.1378C24.4793 15.4295 24.0948 15.8239 23.8164 16.321C23.538 16.8116 23.3955 17.3584 23.3888 17.9616V20.4574C23.3888 21.2131 23.5281 21.866 23.8065 22.4162C24.0915 22.9664 24.4925 23.3906 25.0096 23.6889C25.5266 23.9872 26.1398 24.1364 26.8491 24.1364C27.3197 24.1364 27.7506 24.0701 28.1417 23.9375C28.5328 23.8049 28.8675 23.6061 29.146 23.3409C29.4244 23.0758 29.6365 22.7509 29.7823 22.3665L33.6999 22.625C33.5011 23.5663 33.0934 24.3883 32.4769 25.0909C31.8671 25.7869 31.0782 26.3305 30.1104 26.7216C29.1493 27.1061 28.0389 27.2983 26.7795 27.2983ZM43.4542 27.2983C41.8898 27.2983 40.5442 26.9669 39.4173 26.304C38.297 25.6345 37.4353 24.7064 36.832 23.5199C36.2354 22.3333 35.9371 20.9678 35.9371 19.4233C35.9371 17.8589 36.2388 16.4867 36.842 15.3068C37.4518 14.1203 38.3169 13.1955 39.4371 12.5327C40.5574 11.8632 41.8898 11.5284 43.4343 11.5284C44.7667 11.5284 45.9334 11.7704 46.9343 12.2543C47.9353 12.7382 48.7274 13.4176 49.3107 14.2926C49.8941 15.1676 50.2156 16.1951 50.2752 17.375H46.2781C46.1654 16.6127 45.8671 15.9995 45.3832 15.5355C44.9059 15.0649 44.2795 14.8295 43.5039 14.8295C42.8477 14.8295 42.2743 15.0085 41.7837 15.3665C41.2998 15.7178 40.922 16.2315 40.6502 16.9077C40.3784 17.5838 40.2425 18.4025 40.2425 19.3636C40.2425 20.3381 40.3751 21.1667 40.6403 21.8494C40.9121 22.5322 41.2932 23.0526 41.7837 23.4105C42.2743 23.7685 42.8477 23.9474 43.5039 23.9474C43.9878 23.9474 44.422 23.848 44.8065 23.6491C45.1976 23.4503 45.5191 23.1619 45.771 22.7841C46.0295 22.3996 46.1985 21.9389 46.2781 21.402H50.2752C50.2089 22.5687 49.8907 23.5961 49.3207 24.4844C48.7572 25.366 47.9783 26.0554 46.984 26.5526C45.9897 27.0497 44.8131 27.2983 43.4542 27.2983ZM59.8878 27.2983C58.3433 27.2983 57.0076 26.9702 55.8807 26.3139C54.7604 25.651 53.8954 24.7296 53.2855 23.5497C52.6757 22.3632 52.3707 20.9877 52.3707 19.4233C52.3707 17.8456 52.6757 16.4669 53.2855 15.2869C53.8954 14.1004 54.7604 13.179 55.8807 12.5227C57.0076 11.8598 58.3433 11.5284 59.8878 11.5284C61.4323 11.5284 62.7647 11.8598 63.8849 12.5227C65.0118 13.179 65.8802 14.1004 66.4901 15.2869C67.0999 16.4669 67.4048 17.8456 67.4048 19.4233C67.4048 20.9877 67.0999 22.3632 66.4901 23.5497C65.8802 24.7296 65.0118 25.651 63.8849 26.3139C62.7647 26.9702 61.4323 27.2983 59.8878 27.2983ZM59.9077 24.017C60.6103 24.017 61.197 23.8182 61.6676 23.4205C62.1383 23.0161 62.4929 22.4659 62.7315 21.7699C62.9768 21.0739 63.0994 20.2817 63.0994 19.3935C63.0994 18.5052 62.9768 17.7131 62.7315 17.017C62.4929 16.321 62.1383 15.7708 61.6676 15.3665C61.197 14.9621 60.6103 14.7599 59.9077 14.7599C59.1984 14.7599 58.6018 14.9621 58.1179 15.3665C57.6406 15.7708 57.2794 16.321 57.0341 17.017C56.7955 17.7131 56.6761 18.5052 56.6761 19.3935C56.6761 20.2817 56.7955 21.0739 57.0341 21.7699C57.2794 22.4659 57.6406 23.0161 58.1179 23.4205C58.6018 23.8182 59.1984 24.017 59.9077 24.017ZM70.1591 27V11.7273H74.196V14.4219H74.375C74.6932 13.527 75.2235 12.821 75.9659 12.304C76.7083 11.7869 77.5966 11.5284 78.6307 11.5284C79.678 11.5284 80.5696 11.7902 81.3054 12.3139C82.0412 12.831 82.5317 13.5336 82.777 14.4219H82.9361C83.2476 13.5469 83.8111 12.8475 84.6264 12.3239C85.4484 11.7936 86.4195 11.5284 87.5398 11.5284C88.965 11.5284 90.1217 11.9825 91.0099 12.8906C91.9048 13.7921 92.3523 15.0715 92.3523 16.7287V27H88.1264V17.5639C88.1264 16.7154 87.901 16.0791 87.4503 15.6548C86.9995 15.2306 86.4361 15.0185 85.7599 15.0185C84.991 15.0185 84.3911 15.2637 83.9602 15.7543C83.5294 16.2382 83.3139 16.8778 83.3139 17.6733V27H79.2074V17.4744C79.2074 16.7254 78.992 16.1288 78.5611 15.6847C78.1368 15.2405 77.5767 15.0185 76.8807 15.0185C76.41 15.0185 75.9858 15.1378 75.608 15.3764C75.2367 15.6084 74.9418 15.9366 74.723 16.3608C74.5043 16.7784 74.3949 17.2689 74.3949 17.8324V27H70.1591ZM102.658 27.2983C101.087 27.2983 99.7351 26.9801 98.6016 26.3438C97.4747 25.7008 96.6063 24.7926 95.9964 23.6193C95.3866 22.4394 95.0817 21.044 95.0817 19.4332C95.0817 17.8622 95.3866 16.4834 95.9964 15.2969C96.6063 14.1103 97.4647 13.1856 98.5717 12.5227C99.6854 11.8598 100.991 11.5284 102.489 11.5284C103.497 11.5284 104.435 11.6908 105.303 12.0156C106.178 12.3338 106.941 12.8144 107.59 13.4574C108.246 14.1004 108.757 14.9091 109.121 15.8835C109.486 16.8513 109.668 17.9848 109.668 19.2841V20.4474H96.772V17.8224H105.681C105.681 17.2126 105.549 16.6723 105.283 16.2017C105.018 15.7311 104.65 15.3632 104.18 15.098C103.716 14.8262 103.175 14.6903 102.559 14.6903C101.916 14.6903 101.346 14.8395 100.849 15.1378C100.358 15.4295 99.9737 15.8239 99.6953 16.321C99.4169 16.8116 99.2744 17.3584 99.2678 17.9616V20.4574C99.2678 21.2131 99.407 21.866 99.6854 22.4162C99.9704 22.9664 100.371 23.3906 100.888 23.6889C101.406 23.9872 102.019 24.1364 102.728 24.1364C103.199 24.1364 103.629 24.0701 104.021 23.9375C104.412 23.8049 104.746 23.6061 105.025 23.3409C105.303 23.0758 105.515 22.7509 105.661 22.3665L109.579 22.625C109.38 23.5663 108.972 24.3883 108.356 25.0909C107.746 25.7869 106.957 26.3305 105.989 26.7216C105.028 27.1061 103.918 27.2983 102.658 27.2983ZM116.668 18.1705V27H112.433V11.7273H116.469V14.4219H116.648C116.987 13.5336 117.553 12.831 118.349 12.3139C119.144 11.7902 120.109 11.5284 121.242 11.5284C122.303 11.5284 123.228 11.7604 124.016 12.2244C124.805 12.6884 125.418 13.3513 125.856 14.2131C126.293 15.0682 126.512 16.089 126.512 17.2756V27H122.276V18.0312C122.283 17.0966 122.044 16.3674 121.56 15.8438C121.076 15.3134 120.41 15.0483 119.562 15.0483C118.992 15.0483 118.488 15.1709 118.05 15.4162C117.62 15.6615 117.281 16.0194 117.036 16.4901C116.798 16.9541 116.675 17.5142 116.668 18.1705ZM135.478 27.2486C134.318 27.2486 133.268 26.9503 132.326 26.3537C131.392 25.7505 130.649 24.8655 130.099 23.6989C129.556 22.5256 129.284 21.0871 129.284 19.3835C129.284 17.6335 129.565 16.1785 130.129 15.0185C130.692 13.8518 131.441 12.9801 132.376 12.4034C133.317 11.8201 134.348 11.5284 135.468 11.5284C136.324 11.5284 137.036 11.6742 137.606 11.9659C138.183 12.2509 138.647 12.6089 138.998 13.0398C139.356 13.464 139.628 13.8816 139.814 14.2926H139.943V6.63636H144.169V27H139.993V24.554H139.814C139.615 24.9782 139.333 25.3991 138.968 25.8168C138.61 26.2277 138.143 26.5691 137.566 26.8409C136.996 27.1127 136.3 27.2486 135.478 27.2486ZM136.821 23.8778C137.503 23.8778 138.08 23.6922 138.551 23.321C139.028 22.9432 139.393 22.4162 139.645 21.7401C139.903 21.0639 140.032 20.2718 140.032 19.3636C140.032 18.4555 139.906 17.6667 139.654 16.9972C139.403 16.3277 139.038 15.8106 138.561 15.446C138.083 15.0814 137.503 14.8991 136.821 14.8991C136.125 14.8991 135.538 15.0881 135.061 15.4659C134.583 15.8437 134.222 16.3674 133.977 17.0369C133.732 17.7064 133.609 18.482 133.609 19.3636C133.609 20.2519 133.732 21.0374 133.977 21.7202C134.229 22.3963 134.59 22.9266 135.061 23.3111C135.538 23.6889 136.125 23.8778 136.821 23.8778ZM147.731 6.63636H153.04L158.648 20.3182H158.887L164.495 6.63636H169.805V27H165.629V13.7457H165.46L160.19 26.9006H157.346L152.076 13.696H151.907V27H147.731V6.63636ZM180.233 27.2983C178.662 27.2983 177.309 26.9801 176.176 26.3438C175.049 25.7008 174.181 24.7926 173.571 23.6193C172.961 22.4394 172.656 21.044 172.656 19.4332C172.656 17.8622 172.961 16.4834 173.571 15.2969C174.181 14.1103 175.039 13.1856 176.146 12.5227C177.26 11.8598 178.565 11.5284 180.064 11.5284C181.071 11.5284 182.009 11.6908 182.877 12.0156C183.752 12.3338 184.515 12.8144 185.164 13.4574C185.821 14.1004 186.331 14.9091 186.696 15.8835C187.06 16.8513 187.243 17.9848 187.243 19.2841V20.4474H174.346V17.8224H183.255C183.255 17.2126 183.123 16.6723 182.858 16.2017C182.592 15.7311 182.225 15.3632 181.754 15.098C181.29 14.8262 180.75 14.6903 180.133 14.6903C179.49 14.6903 178.92 14.8395 178.423 15.1378C177.932 15.4295 177.548 15.8239 177.27 16.321C176.991 16.8116 176.849 17.3584 176.842 17.9616V20.4574C176.842 21.2131 176.981 21.866 177.26 22.4162C177.545 22.9664 177.946 23.3906 178.463 23.6889C178.98 23.9872 179.593 24.1364 180.302 24.1364C180.773 24.1364 181.204 24.0701 181.595 23.9375C181.986 23.8049 182.321 23.6061 182.599 23.3409C182.877 23.0758 183.09 22.7509 183.235 22.3665L187.153 22.625C186.954 23.5663 186.547 24.3883 185.93 25.0909C185.32 25.7869 184.531 26.3305 183.564 26.7216C182.602 27.1061 181.492 27.2983 180.233 27.2983Z" fill="#0F172A"/>
<path d="M113.08 40H112.023C111.96 39.696 111.851 39.429 111.695 39.1989C111.541 38.9688 111.354 38.7756 111.132 38.6193C110.913 38.4602 110.67 38.3409 110.403 38.2614C110.136 38.1818 109.858 38.142 109.568 38.142C109.04 38.142 108.561 38.2756 108.132 38.5426C107.706 38.8097 107.366 39.2031 107.114 39.723C106.864 40.2429 106.739 40.8807 106.739 41.6364C106.739 42.392 106.864 43.0298 107.114 43.5497C107.366 44.0696 107.706 44.4631 108.132 44.7301C108.561 44.9972 109.04 45.1307 109.568 45.1307C109.858 45.1307 110.136 45.0909 110.403 45.0114C110.67 44.9318 110.913 44.8139 111.132 44.6577C111.354 44.4986 111.541 44.304 111.695 44.0739C111.851 43.8409 111.96 43.5739 112.023 43.2727H113.08C113 43.7187 112.855 44.1179 112.645 44.4702C112.435 44.8224 112.173 45.1222 111.861 45.3693C111.548 45.6136 111.197 45.7997 110.808 45.9276C110.422 46.0554 110.009 46.1193 109.568 46.1193C108.824 46.1193 108.162 45.9375 107.582 45.5739C107.003 45.2102 106.547 44.6932 106.214 44.0227C105.882 43.3523 105.716 42.5568 105.716 41.6364C105.716 40.7159 105.882 39.9205 106.214 39.25C106.547 38.5795 107.003 38.0625 107.582 37.6989C108.162 37.3352 108.824 37.1534 109.568 37.1534C110.009 37.1534 110.422 37.2173 110.808 37.3452C111.197 37.473 111.548 37.6605 111.861 37.9077C112.173 38.152 112.435 38.4503 112.645 38.8026C112.855 39.152 113 39.5511 113.08 40ZM117.31 46.1364C116.719 46.1364 116.201 45.9957 115.755 45.7145C115.311 45.4332 114.965 45.0398 114.715 44.5341C114.468 44.0284 114.344 43.4375 114.344 42.7614C114.344 42.0795 114.468 41.4844 114.715 40.9759C114.965 40.4673 115.311 40.0724 115.755 39.7912C116.201 39.5099 116.719 39.3693 117.31 39.3693C117.901 39.3693 118.418 39.5099 118.861 39.7912C119.307 40.0724 119.654 40.4673 119.901 40.9759C120.151 41.4844 120.276 42.0795 120.276 42.7614C120.276 43.4375 120.151 44.0284 119.901 44.5341C119.654 45.0398 119.307 45.4332 118.861 45.7145C118.418 45.9957 117.901 46.1364 117.31 46.1364ZM117.31 45.233C117.759 45.233 118.128 45.1179 118.418 44.8878C118.708 44.6577 118.922 44.3551 119.061 43.9801C119.201 43.6051 119.27 43.1989 119.27 42.7614C119.27 42.3239 119.201 41.9162 119.061 41.5384C118.922 41.1605 118.708 40.8551 118.418 40.6222C118.128 40.3892 117.759 40.2727 117.31 40.2727C116.861 40.2727 116.492 40.3892 116.202 40.6222C115.912 40.8551 115.698 41.1605 115.559 41.5384C115.419 41.9162 115.35 42.3239 115.35 42.7614C115.35 43.1989 115.419 43.6051 115.559 43.9801C115.698 44.3551 115.912 44.6577 116.202 44.8878C116.492 45.1179 116.861 45.233 117.31 45.233ZM121.811 46V39.4545H122.783V40.4773H122.868C123.004 40.1278 123.224 39.8565 123.528 39.6634C123.832 39.4673 124.197 39.3693 124.624 39.3693C125.055 39.3693 125.415 39.4673 125.702 39.6634C125.991 39.8565 126.217 40.1278 126.379 40.4773H126.447C126.615 40.1392 126.866 39.8707 127.202 39.6719C127.537 39.4702 127.939 39.3693 128.408 39.3693C128.993 39.3693 129.472 39.5526 129.844 39.919C130.216 40.2827 130.402 40.8494 130.402 41.6193V46H129.396V41.6193C129.396 41.1364 129.264 40.7912 129 40.5838C128.736 40.3764 128.425 40.2727 128.067 40.2727C127.607 40.2727 127.25 40.4119 126.997 40.6903C126.744 40.9659 126.618 41.3153 126.618 41.7386V46H125.595V41.517C125.595 41.1449 125.474 40.8452 125.233 40.6179C124.991 40.3878 124.68 40.2727 124.3 40.2727C124.038 40.2727 123.794 40.3423 123.567 40.4815C123.342 40.6207 123.161 40.8139 123.021 41.0611C122.885 41.3054 122.817 41.5881 122.817 41.9091V46H121.811ZM132.241 46V39.4545H133.246V46H132.241ZM132.752 38.3636C132.556 38.3636 132.387 38.2969 132.245 38.1634C132.106 38.0298 132.036 37.8693 132.036 37.6818C132.036 37.4943 132.106 37.3338 132.245 37.2003C132.387 37.0668 132.556 37 132.752 37C132.948 37 133.116 37.0668 133.255 37.2003C133.397 37.3338 133.468 37.4943 133.468 37.6818C133.468 37.8693 133.397 38.0298 133.255 38.1634C133.116 38.2969 132.948 38.3636 132.752 38.3636ZM136.094 42.0625V46H135.088V39.4545H136.06V40.4773H136.145C136.299 40.1449 136.532 39.8778 136.844 39.6761C137.157 39.4716 137.56 39.3693 138.054 39.3693C138.498 39.3693 138.885 39.4602 139.218 39.642C139.55 39.821 139.809 40.0938 139.993 40.4602C140.178 40.8239 140.27 41.2841 140.27 41.8409V46H139.265V41.9091C139.265 41.3949 139.131 40.9943 138.864 40.7074C138.597 40.4176 138.23 40.2727 137.765 40.2727C137.444 40.2727 137.157 40.3423 136.904 40.4815C136.654 40.6207 136.456 40.8239 136.311 41.0909C136.167 41.358 136.094 41.6818 136.094 42.0625ZM144.75 48.5909C144.264 48.5909 143.847 48.5284 143.497 48.4034C143.148 48.2812 142.857 48.1193 142.624 47.9176C142.393 47.7188 142.21 47.5057 142.074 47.2784L142.875 46.7159C142.966 46.8352 143.081 46.9716 143.22 47.125C143.359 47.2812 143.55 47.4162 143.791 47.5298C144.036 47.6463 144.355 47.7045 144.75 47.7045C145.278 47.7045 145.714 47.5767 146.058 47.321C146.402 47.0653 146.574 46.6648 146.574 46.1193V44.7898H146.489C146.415 44.9091 146.31 45.0568 146.173 45.233C146.04 45.4062 145.847 45.5611 145.594 45.6974C145.344 45.831 145.006 45.8977 144.58 45.8977C144.051 45.8977 143.577 45.7727 143.156 45.5227C142.739 45.2727 142.408 44.9091 142.163 44.4318C141.922 43.9545 141.801 43.375 141.801 42.6932C141.801 42.0227 141.919 41.4389 142.155 40.9418C142.391 40.4418 142.719 40.0554 143.139 39.7827C143.56 39.5071 144.045 39.3693 144.597 39.3693C145.023 39.3693 145.361 39.4403 145.611 39.5824C145.864 39.7216 146.057 39.8807 146.19 40.0597C146.327 40.2358 146.432 40.3807 146.506 40.4943H146.608V39.4545H147.58V46.1875C147.58 46.75 147.452 47.2074 147.196 47.5597C146.943 47.9148 146.602 48.1747 146.173 48.3395C145.747 48.5071 145.273 48.5909 144.75 48.5909ZM144.716 44.9943C145.119 44.9943 145.46 44.902 145.739 44.7173C146.017 44.5327 146.229 44.267 146.374 43.9205C146.518 43.5739 146.591 43.1591 146.591 42.6761C146.591 42.2045 146.52 41.7884 146.378 41.4276C146.236 41.0668 146.026 40.7841 145.747 40.5795C145.469 40.375 145.125 40.2727 144.716 40.2727C144.29 40.2727 143.935 40.3807 143.651 40.5966C143.369 40.8125 143.158 41.1023 143.016 41.4659C142.876 41.8295 142.807 42.233 142.807 42.6761C142.807 43.1307 142.878 43.5327 143.02 43.8821C143.165 44.2287 143.378 44.5014 143.659 44.7003C143.943 44.8963 144.295 44.9943 144.716 44.9943ZM157.432 40.9205L156.528 41.1761C156.472 41.0256 156.388 40.8793 156.277 40.7372C156.169 40.5923 156.021 40.473 155.834 40.3793C155.646 40.2855 155.406 40.2386 155.114 40.2386C154.713 40.2386 154.379 40.331 154.112 40.5156C153.848 40.6974 153.716 40.929 153.716 41.2102C153.716 41.4602 153.807 41.6577 153.989 41.8026C154.17 41.9474 154.455 42.0682 154.841 42.1648L155.812 42.4034C156.398 42.5455 156.834 42.7628 157.121 43.0554C157.408 43.3452 157.551 43.7187 157.551 44.1761C157.551 44.5511 157.443 44.8864 157.227 45.1818C157.014 45.4773 156.716 45.7102 156.332 45.8807C155.949 46.0511 155.503 46.1364 154.994 46.1364C154.327 46.1364 153.774 45.9915 153.337 45.7017C152.899 45.4119 152.622 44.9886 152.506 44.4318L153.46 44.1932C153.551 44.5455 153.723 44.8097 153.976 44.9858C154.232 45.1619 154.565 45.25 154.977 45.25C155.446 45.25 155.818 45.1506 156.094 44.9517C156.372 44.75 156.511 44.5085 156.511 44.2273C156.511 44 156.432 43.8097 156.273 43.6562C156.114 43.5 155.869 43.3835 155.54 43.3068L154.449 43.0511C153.849 42.9091 153.409 42.6889 153.128 42.3906C152.849 42.0895 152.71 41.7131 152.71 41.2614C152.71 40.892 152.814 40.5653 153.021 40.2812C153.232 39.9972 153.517 39.7741 153.878 39.6122C154.241 39.4503 154.653 39.3693 155.114 39.3693C155.761 39.3693 156.27 39.5114 156.639 39.7955C157.011 40.0795 157.276 40.4545 157.432 40.9205ZM161.724 46.1364C161.133 46.1364 160.615 45.9957 160.169 45.7145C159.725 45.4332 159.379 45.0398 159.129 44.5341C158.882 44.0284 158.758 43.4375 158.758 42.7614C158.758 42.0795 158.882 41.4844 159.129 40.9759C159.379 40.4673 159.725 40.0724 160.169 39.7912C160.615 39.5099 161.133 39.3693 161.724 39.3693C162.315 39.3693 162.832 39.5099 163.275 39.7912C163.721 40.0724 164.068 40.4673 164.315 40.9759C164.565 41.4844 164.69 42.0795 164.69 42.7614C164.69 43.4375 164.565 44.0284 164.315 44.5341C164.068 45.0398 163.721 45.4332 163.275 45.7145C162.832 45.9957 162.315 46.1364 161.724 46.1364ZM161.724 45.233C162.173 45.233 162.542 45.1179 162.832 44.8878C163.122 44.6577 163.336 44.3551 163.475 43.9801C163.615 43.6051 163.684 43.1989 163.684 42.7614C163.684 42.3239 163.615 41.9162 163.475 41.5384C163.336 41.1605 163.122 40.8551 162.832 40.6222C162.542 40.3892 162.173 40.2727 161.724 40.2727C161.275 40.2727 160.906 40.3892 160.616 40.6222C160.326 40.8551 160.112 41.1605 159.973 41.5384C159.833 41.9162 159.764 42.3239 159.764 42.7614C159.764 43.1989 159.833 43.6051 159.973 43.9801C160.112 44.3551 160.326 44.6577 160.616 44.8878C160.906 45.1179 161.275 45.233 161.724 45.233ZM168.884 46.1364C168.293 46.1364 167.775 45.9957 167.329 45.7145C166.886 45.4332 166.539 45.0398 166.289 44.5341C166.042 44.0284 165.918 43.4375 165.918 42.7614C165.918 42.0795 166.042 41.4844 166.289 40.9759C166.539 40.4673 166.886 40.0724 167.329 39.7912C167.775 39.5099 168.293 39.3693 168.884 39.3693C169.475 39.3693 169.992 39.5099 170.435 39.7912C170.881 40.0724 171.228 40.4673 171.475 40.9759C171.725 41.4844 171.85 42.0795 171.85 42.7614C171.85 43.4375 171.725 44.0284 171.475 44.5341C171.228 45.0398 170.881 45.4332 170.435 45.7145C169.992 45.9957 169.475 46.1364 168.884 46.1364ZM168.884 45.233C169.333 45.233 169.702 45.1179 169.992 44.8878C170.282 44.6577 170.496 44.3551 170.636 43.9801C170.775 43.6051 170.844 43.1989 170.844 42.7614C170.844 42.3239 170.775 41.9162 170.636 41.5384C170.496 41.1605 170.282 40.8551 169.992 40.6222C169.702 40.3892 169.333 40.2727 168.884 40.2727C168.435 40.2727 168.066 40.3892 167.776 40.6222C167.487 40.8551 167.272 41.1605 167.133 41.5384C166.994 41.9162 166.924 42.3239 166.924 42.7614C166.924 43.1989 166.994 43.6051 167.133 43.9801C167.272 44.3551 167.487 44.6577 167.776 44.8878C168.066 45.1179 168.435 45.233 168.884 45.233ZM174.391 42.0625V46H173.385V39.4545H174.357V40.4773H174.442C174.596 40.1449 174.828 39.8778 175.141 39.6761C175.453 39.4716 175.857 39.3693 176.351 39.3693C176.794 39.3693 177.182 39.4602 177.515 39.642C177.847 39.821 178.105 40.0938 178.29 40.4602C178.475 40.8239 178.567 41.2841 178.567 41.8409V46H177.561V41.9091C177.561 41.3949 177.428 40.9943 177.161 40.7074C176.894 40.4176 176.527 40.2727 176.061 40.2727C175.74 40.2727 175.453 40.3423 175.201 40.4815C174.951 40.6207 174.753 40.8239 174.608 41.0909C174.463 41.358 174.391 41.6818 174.391 42.0625ZM181.138 46.0682C180.928 46.0682 180.747 45.9929 180.597 45.8423C180.446 45.6918 180.371 45.5114 180.371 45.3011C180.371 45.0909 180.446 44.9105 180.597 44.7599C180.747 44.6094 180.928 44.5341 181.138 44.5341C181.348 44.5341 181.528 44.6094 181.679 44.7599C181.83 44.9105 181.905 45.0909 181.905 45.3011C181.905 45.4403 181.869 45.5682 181.798 45.6847C181.73 45.8011 181.638 45.8949 181.521 45.9659C181.408 46.0341 181.28 46.0682 181.138 46.0682ZM184.442 46.0682C184.232 46.0682 184.052 45.9929 183.901 45.8423C183.751 45.6918 183.675 45.5114 183.675 45.3011C183.675 45.0909 183.751 44.9105 183.901 44.7599C184.052 44.6094 184.232 44.5341 184.442 44.5341C184.653 44.5341 184.833 44.6094 184.984 44.7599C185.134 44.9105 185.21 45.0909 185.21 45.3011C185.21 45.4403 185.174 45.5682 185.103 45.6847C185.035 45.8011 184.942 45.8949 184.826 45.9659C184.712 46.0341 184.585 46.0682 184.442 46.0682ZM187.747 46.0682C187.537 46.0682 187.357 45.9929 187.206 45.8423C187.055 45.6918 186.98 45.5114 186.98 45.3011C186.98 45.0909 187.055 44.9105 187.206 44.7599C187.357 44.6094 187.537 44.5341 187.747 44.5341C187.957 44.5341 188.138 44.6094 188.288 44.7599C188.439 44.9105 188.514 45.0909 188.514 45.3011C188.514 45.4403 188.479 45.5682 188.408 45.6847C188.339 45.8011 188.247 45.8949 188.131 45.9659C188.017 46.0341 187.889 46.0682 187.747 46.0682Z" fill="#94A3B8"/>
</svg>
