<svg width="187" height="22" viewBox="0 0 187 22" fill="none" xmlns="http://www.w3.org/2000/svg">
<path d="M0.769886 21V0.636363H8.80398C10.3419 0.636363 11.6544 0.911458 12.7415 1.46165C13.8352 2.00521 14.6671 2.77746 15.2372 3.77841C15.8139 4.77273 16.1023 5.94271 16.1023 7.28835C16.1023 8.64062 15.8106 9.80398 15.2273 10.7784C14.6439 11.7462 13.7988 12.4886 12.6918 13.0057C11.5914 13.5227 10.259 13.7812 8.6946 13.7812H3.31534V10.321H7.99858C8.82055 10.321 9.50331 10.2083 10.0469 9.98295C10.5904 9.75758 10.9948 9.41951 11.2599 8.96875C11.5317 8.51799 11.6676 7.95786 11.6676 7.28835C11.6676 6.61222 11.5317 6.04214 11.2599 5.57812C10.9948 5.11411 10.5871 4.76278 10.0369 4.52415C9.49337 4.27888 8.80729 4.15625 7.97869 4.15625H5.07528V21H0.769886ZM11.767 11.733L16.8281 21H12.0753L7.12358 11.733H11.767ZM25.7795 21.2983C24.2085 21.2983 22.8562 20.9801 21.7227 20.3438C20.5958 19.7008 19.7274 18.7926 19.1175 17.6193C18.5077 16.4394 18.2028 15.044 18.2028 13.4332C18.2028 11.8622 18.5077 10.4834 19.1175 9.29688C19.7274 8.11032 20.5858 7.18561 21.6928 6.52273C22.8065 5.85985 24.1123 5.52841 25.6104 5.52841C26.618 5.52841 27.556 5.69081 28.4244 6.01562C29.2994 6.33381 30.0617 6.81439 30.7113 7.45739C31.3675 8.10038 31.878 8.90909 32.2425 9.88352C32.6071 10.8513 32.7894 11.9848 32.7894 13.2841V14.4474H19.8931V11.8224H28.8022C28.8022 11.2126 28.6696 10.6723 28.4045 10.2017C28.1393 9.73106 27.7714 9.36316 27.3008 9.09801C26.8368 8.82623 26.2965 8.69034 25.68 8.69034C25.0371 8.69034 24.467 8.83949 23.9698 9.13778C23.4793 9.42945 23.0948 9.82386 22.8164 10.321C22.538 10.8116 22.3955 11.3584 22.3888 11.9616V14.4574C22.3888 15.2131 22.5281 15.866 22.8065 16.4162C23.0915 16.9664 23.4925 17.3906 24.0096 17.6889C24.5266 17.9872 25.1398 18.1364 25.8491 18.1364C26.3197 18.1364 26.7506 18.0701 27.1417 17.9375C27.5328 17.8049 27.8675 17.6061 28.146 17.3409C28.4244 17.0758 28.6365 16.7509 28.7823 16.3665L32.6999 16.625C32.5011 17.5663 32.0934 18.3883 31.4769 19.0909C30.8671 19.7869 30.0782 20.3305 29.1104 20.7216C28.1493 21.1061 27.0389 21.2983 25.7795 21.2983ZM42.4542 21.2983C40.8898 21.2983 39.5442 20.9669 38.4173 20.304C37.297 19.6345 36.4353 18.7064 35.832 17.5199C35.2354 16.3333 34.9371 14.9678 34.9371 13.4233C34.9371 11.8589 35.2388 10.4867 35.842 9.30682C36.4518 8.12026 37.3169 7.19555 38.4371 6.53267C39.5574 5.86316 40.8898 5.52841 42.4343 5.52841C43.7667 5.52841 44.9334 5.77036 45.9343 6.25426C46.9353 6.73816 47.7274 7.41761 48.3107 8.29261C48.8941 9.16761 49.2156 10.1951 49.2752 11.375H45.2781C45.1654 10.6127 44.8671 9.99953 44.3832 9.53551C43.9059 9.06487 43.2795 8.82955 42.5039 8.82955C41.8477 8.82955 41.2743 9.00852 40.7837 9.36648C40.2998 9.7178 39.922 10.2315 39.6502 10.9077C39.3784 11.5838 39.2425 12.4025 39.2425 13.3636C39.2425 14.3381 39.3751 15.1667 39.6403 15.8494C39.9121 16.5322 40.2932 17.0526 40.7837 17.4105C41.2743 17.7685 41.8477 17.9474 42.5039 17.9474C42.9878 17.9474 43.422 17.848 43.8065 17.6491C44.1976 17.4503 44.5191 17.1619 44.771 16.7841C45.0295 16.3996 45.1985 15.9389 45.2781 15.402H49.2752C49.2089 16.5687 48.8907 17.5961 48.3207 18.4844C47.7572 19.366 46.9783 20.0554 45.984 20.5526C44.9897 21.0497 43.8131 21.2983 42.4542 21.2983ZM58.8878 21.2983C57.3433 21.2983 56.0076 20.9702 54.8807 20.3139C53.7604 19.651 52.8954 18.7296 52.2855 17.5497C51.6757 16.3632 51.3707 14.9877 51.3707 13.4233C51.3707 11.8456 51.6757 10.4669 52.2855 9.28693C52.8954 8.10038 53.7604 7.17898 54.8807 6.52273C56.0076 5.85985 57.3433 5.52841 58.8878 5.52841C60.4323 5.52841 61.7647 5.85985 62.8849 6.52273C64.0118 7.17898 64.8802 8.10038 65.4901 9.28693C66.0999 10.4669 66.4048 11.8456 66.4048 13.4233C66.4048 14.9877 66.0999 16.3632 65.4901 17.5497C64.8802 18.7296 64.0118 19.651 62.8849 20.3139C61.7647 20.9702 60.4323 21.2983 58.8878 21.2983ZM58.9077 18.017C59.6103 18.017 60.197 17.8182 60.6676 17.4205C61.1383 17.0161 61.4929 16.4659 61.7315 15.7699C61.9768 15.0739 62.0994 14.2817 62.0994 13.3935C62.0994 12.5052 61.9768 11.7131 61.7315 11.017C61.4929 10.321 61.1383 9.77083 60.6676 9.36648C60.197 8.96212 59.6103 8.75994 58.9077 8.75994C58.1984 8.75994 57.6018 8.96212 57.1179 9.36648C56.6406 9.77083 56.2794 10.321 56.0341 11.017C55.7955 11.7131 55.6761 12.5052 55.6761 13.3935C55.6761 14.2817 55.7955 15.0739 56.0341 15.7699C56.2794 16.4659 56.6406 17.0161 57.1179 17.4205C57.6018 17.8182 58.1984 18.017 58.9077 18.017ZM69.1591 21V5.72727H73.196V8.42188H73.375C73.6932 7.52699 74.2235 6.82102 74.9659 6.30398C75.7083 5.78693 76.5966 5.52841 77.6307 5.52841C78.678 5.52841 79.5696 5.79025 80.3054 6.31392C81.0412 6.83097 81.5317 7.53362 81.777 8.42188H81.9361C82.2476 7.54688 82.8111 6.84754 83.6264 6.32386C84.4484 5.79356 85.4195 5.52841 86.5398 5.52841C87.965 5.52841 89.1217 5.98248 90.0099 6.89062C90.9048 7.79214 91.3523 9.0715 91.3523 10.7287V21H87.1264V11.5639C87.1264 10.7154 86.901 10.0791 86.4503 9.65483C85.9995 9.23059 85.4361 9.01847 84.7599 9.01847C83.991 9.01847 83.3911 9.26373 82.9602 9.75426C82.5294 10.2382 82.3139 10.8778 82.3139 11.6733V21H78.2074V11.4744C78.2074 10.7254 77.992 10.1288 77.5611 9.68466C77.1368 9.24053 76.5767 9.01847 75.8807 9.01847C75.41 9.01847 74.9858 9.13778 74.608 9.37642C74.2367 9.60843 73.9418 9.93655 73.723 10.3608C73.5043 10.7784 73.3949 11.2689 73.3949 11.8324V21H69.1591ZM101.658 21.2983C100.087 21.2983 98.7351 20.9801 97.6016 20.3438C96.4747 19.7008 95.6063 18.7926 94.9964 17.6193C94.3866 16.4394 94.0817 15.044 94.0817 13.4332C94.0817 11.8622 94.3866 10.4834 94.9964 9.29688C95.6063 8.11032 96.4647 7.18561 97.5717 6.52273C98.6854 5.85985 99.9912 5.52841 101.489 5.52841C102.497 5.52841 103.435 5.69081 104.303 6.01562C105.178 6.33381 105.941 6.81439 106.59 7.45739C107.246 8.10038 107.757 8.90909 108.121 9.88352C108.486 10.8513 108.668 11.9848 108.668 13.2841V14.4474H95.772V11.8224H104.681C104.681 11.2126 104.549 10.6723 104.283 10.2017C104.018 9.73106 103.65 9.36316 103.18 9.09801C102.716 8.82623 102.175 8.69034 101.559 8.69034C100.916 8.69034 100.346 8.83949 99.8487 9.13778C99.3582 9.42945 98.9737 9.82386 98.6953 10.321C98.4169 10.8116 98.2744 11.3584 98.2678 11.9616V14.4574C98.2678 15.2131 98.407 15.866 98.6854 16.4162C98.9704 16.9664 99.3714 17.3906 99.8885 17.6889C100.406 17.9872 101.019 18.1364 101.728 18.1364C102.199 18.1364 102.629 18.0701 103.021 17.9375C103.412 17.8049 103.746 17.6061 104.025 17.3409C104.303 17.0758 104.515 16.7509 104.661 16.3665L108.579 16.625C108.38 17.5663 107.972 18.3883 107.356 19.0909C106.746 19.7869 105.957 20.3305 104.989 20.7216C104.028 21.1061 102.918 21.2983 101.658 21.2983ZM115.668 12.1705V21H111.433V5.72727H115.469V8.42188H115.648C115.987 7.53362 116.553 6.83097 117.349 6.31392C118.144 5.79025 119.109 5.52841 120.242 5.52841C121.303 5.52841 122.228 5.76042 123.016 6.22443C123.805 6.68845 124.418 7.35133 124.856 8.21307C125.293 9.06818 125.512 10.089 125.512 11.2756V21H121.276V12.0312C121.283 11.0966 121.044 10.3674 120.56 9.84375C120.076 9.31345 119.41 9.0483 118.562 9.0483C117.992 9.0483 117.488 9.17093 117.05 9.41619C116.62 9.66146 116.281 10.0194 116.036 10.4901C115.798 10.9541 115.675 11.5142 115.668 12.1705ZM134.478 21.2486C133.318 21.2486 132.268 20.9503 131.326 20.3537C130.392 19.7505 129.649 18.8655 129.099 17.6989C128.556 16.5256 128.284 15.0871 128.284 13.3835C128.284 11.6335 128.565 10.1785 129.129 9.01847C129.692 7.8518 130.441 6.98011 131.376 6.40341C132.317 5.82008 133.348 5.52841 134.468 5.52841C135.324 5.52841 136.036 5.67424 136.606 5.96591C137.183 6.25095 137.647 6.6089 137.998 7.03977C138.356 7.46401 138.628 7.88163 138.814 8.29261H138.943V0.636363H143.169V21H138.993V18.554H138.814C138.615 18.9782 138.333 19.3991 137.968 19.8168C137.61 20.2277 137.143 20.5691 136.566 20.8409C135.996 21.1127 135.3 21.2486 134.478 21.2486ZM135.821 17.8778C136.503 17.8778 137.08 17.6922 137.551 17.321C138.028 16.9432 138.393 16.4162 138.645 15.7401C138.903 15.0639 139.032 14.2718 139.032 13.3636C139.032 12.4555 138.906 11.6667 138.654 10.9972C138.403 10.3277 138.038 9.81061 137.561 9.44602C137.083 9.08144 136.503 8.89915 135.821 8.89915C135.125 8.89915 134.538 9.08807 134.061 9.46591C133.583 9.84375 133.222 10.3674 132.977 11.0369C132.732 11.7064 132.609 12.482 132.609 13.3636C132.609 14.2519 132.732 15.0374 132.977 15.7202C133.229 16.3963 133.59 16.9266 134.061 17.3111C134.538 17.6889 135.125 17.8778 135.821 17.8778ZM146.731 0.636363H152.04L157.648 14.3182H157.887L163.495 0.636363H168.805V21H164.629V7.74574H164.46L159.19 20.9006H156.346L151.076 7.69602H150.907V21H146.731V0.636363ZM179.233 21.2983C177.662 21.2983 176.309 20.9801 175.176 20.3438C174.049 19.7008 173.181 18.7926 172.571 17.6193C171.961 16.4394 171.656 15.044 171.656 13.4332C171.656 11.8622 171.961 10.4834 172.571 9.29688C173.181 8.11032 174.039 7.18561 175.146 6.52273C176.26 5.85985 177.565 5.52841 179.064 5.52841C180.071 5.52841 181.009 5.69081 181.877 6.01562C182.752 6.33381 183.515 6.81439 184.164 7.45739C184.821 8.10038 185.331 8.90909 185.696 9.88352C186.06 10.8513 186.243 11.9848 186.243 13.2841V14.4474H173.346V11.8224H182.255C182.255 11.2126 182.123 10.6723 181.858 10.2017C181.592 9.73106 181.225 9.36316 180.754 9.09801C180.29 8.82623 179.75 8.69034 179.133 8.69034C178.49 8.69034 177.92 8.83949 177.423 9.13778C176.932 9.42945 176.548 9.82386 176.27 10.321C175.991 10.8116 175.849 11.3584 175.842 11.9616V14.4574C175.842 15.2131 175.981 15.866 176.26 16.4162C176.545 16.9664 176.946 17.3906 177.463 17.6889C177.98 17.9872 178.593 18.1364 179.302 18.1364C179.773 18.1364 180.204 18.0701 180.595 17.9375C180.986 17.8049 181.321 17.6061 181.599 17.3409C181.877 17.0758 182.09 16.7509 182.235 16.3665L186.153 16.625C185.954 17.5663 185.547 18.3883 184.93 19.0909C184.32 19.7869 183.531 20.3305 182.564 20.7216C181.602 21.1061 180.492 21.2983 179.233 21.2983Z" fill="#0F172A"/>
</svg>
