<svg width="50" height="34" viewBox="0 0 50 34" fill="none" xmlns="http://www.w3.org/2000/svg">
<path d="M0.760676 14.5582V0H6.67006C7.74111 0 8.66547 0.196669 9.44315 0.590006C10.2255 0.978605 10.8285 1.53781 11.2523 2.26761C11.676 2.99268 11.8879 3.85281 11.8879 4.848C11.8879 5.85741 11.6714 6.71517 11.2383 7.42128C10.8052 8.12266 10.1906 8.65817 9.39425 9.02781C8.59795 9.39271 7.65496 9.57516 6.56529 9.57516H2.82826V6.80284H5.92266C6.44421 6.80284 6.87962 6.73413 7.22887 6.5967C7.58278 6.45453 7.85055 6.24127 8.03216 5.95693C8.21377 5.66785 8.30458 5.29821 8.30458 4.848C8.30458 4.3978 8.21377 4.02579 8.03216 3.73197C7.85055 3.43341 7.58278 3.21068 7.22887 3.06377C6.87496 2.91212 6.43956 2.8363 5.92266 2.8363H4.2183V14.5582H0.760676ZM8.81449 7.90466L12.3769 14.5582H8.60494L5.11239 7.90466H8.81449Z" fill="black"/>
<path d="M17.6049 14.7644C16.4826 14.7644 15.514 14.5393 14.6991 14.0891C13.8888 13.6341 13.2648 12.9872 12.8271 12.1484C12.394 11.3049 12.1775 10.3026 12.1775 9.14154C12.1775 8.01366 12.3963 7.02795 12.8341 6.1844C13.2718 5.33612 13.8888 4.6774 14.6851 4.20824C15.4814 3.73434 16.4197 3.49739 17.5001 3.49739C18.2638 3.49739 18.9623 3.61823 19.5956 3.85992C20.2289 4.10161 20.7761 4.4594 21.2371 4.93331C21.6981 5.40721 22.0567 5.99247 22.3128 6.68911C22.569 7.381 22.697 8.17479 22.697 9.07046V9.9377H13.3719V7.91888H19.5188C19.5141 7.54924 19.428 7.21988 19.2603 6.9308C19.0927 6.64172 18.8622 6.41661 18.5688 6.25549C18.2801 6.08962 17.9471 6.00669 17.57 6.00669C17.1881 6.00669 16.8458 6.09436 16.5431 6.26971C16.2405 6.44031 16.0006 6.67489 15.8237 6.97345C15.6467 7.26727 15.5536 7.60137 15.5443 7.97575V10.0301C15.5443 10.4756 15.6304 10.8665 15.8027 11.203C15.975 11.5347 16.2195 11.793 16.5362 11.9778C16.8528 12.1627 17.23 12.2551 17.6677 12.2551C17.9704 12.2551 18.2452 12.2124 18.492 12.1271C18.7388 12.0418 18.9507 11.9162 19.1276 11.7504C19.3046 11.5845 19.4373 11.3807 19.5258 11.139L22.6621 11.2314C22.5317 11.947 22.2453 12.5702 21.8029 13.101C21.3652 13.627 20.7901 14.0369 20.0776 14.3308C19.3651 14.6198 18.5409 14.7644 17.6049 14.7644Z" fill="black"/>
<path d="M28.4664 14.7644C27.3348 14.7644 26.3638 14.5274 25.5536 14.0535C24.748 13.5796 24.1286 12.9209 23.6955 12.0774C23.2625 11.2291 23.0459 10.2481 23.0459 9.13443C23.0459 8.01603 23.2625 7.03506 23.6955 6.19151C24.1333 5.34323 24.7549 4.68214 25.5606 4.20824C26.3708 3.73434 27.3371 3.49739 28.4594 3.49739C29.4512 3.49739 30.3151 3.67984 31.0508 4.04474C31.7913 4.40965 32.3687 4.9262 32.7831 5.5944C33.2022 6.25786 33.4234 7.03743 33.4467 7.9331H30.2545C30.1893 7.37389 30.0031 6.93554 29.6957 6.61802C29.393 6.30051 28.9972 6.14175 28.5083 6.14175C28.1124 6.14175 27.7655 6.25549 27.4675 6.48296C27.1695 6.70569 26.9366 7.03743 26.769 7.47815C26.606 7.91414 26.5245 8.45439 26.5245 9.09889C26.5245 9.7434 26.606 10.2884 26.769 10.7339C26.9366 11.1746 27.1695 11.5087 27.4675 11.7361C27.7655 11.9589 28.1124 12.0703 28.5083 12.0703C28.8249 12.0703 29.1043 12.0015 29.3465 11.8641C29.5933 11.7267 29.7958 11.5253 29.9542 11.2599C30.1125 10.9898 30.2126 10.6628 30.2545 10.2789H33.4467C33.4141 11.1793 33.1929 11.966 32.7831 12.6389C32.378 13.3119 31.8076 13.8355 31.0718 14.2099C30.3407 14.5796 29.4722 14.7644 28.4664 14.7644Z" fill="black"/>
<path d="M39.2196 14.7644C38.0926 14.7644 37.124 14.5298 36.3138 14.0606C35.5081 13.5867 34.8865 12.928 34.4487 12.0845C34.0157 11.2362 33.7991 10.2528 33.7991 9.13443C33.7991 8.01129 34.0157 7.02795 34.4487 6.1844C34.8865 5.33612 35.5081 4.6774 36.3138 4.20824C37.124 3.73434 38.0926 3.49739 39.2196 3.49739C40.3465 3.49739 41.3128 3.73434 42.1184 4.20824C42.9286 4.6774 43.5503 5.33612 43.9834 6.1844C44.4211 7.02795 44.64 8.01129 44.64 9.13443C44.64 10.2528 44.4211 11.2362 43.9834 12.0845C43.5503 12.928 42.9286 13.5867 42.1184 14.0606C41.3128 14.5298 40.3465 14.7644 39.2196 14.7644ZM39.2405 12.1413C39.6503 12.1413 39.9972 12.0134 40.2813 11.7575C40.5653 11.5016 40.7819 11.1461 40.9309 10.6912C41.0846 10.2363 41.1614 9.71022 41.1614 9.11311C41.1614 8.50652 41.0846 7.97575 40.9309 7.5208C40.7819 7.06586 40.5653 6.71043 40.2813 6.45453C39.9972 6.19862 39.6503 6.07067 39.2405 6.07067C38.8167 6.07067 38.4582 6.19862 38.1648 6.45453C37.8761 6.71043 37.6549 7.06586 37.5012 7.5208C37.3522 7.97575 37.2777 8.50652 37.2777 9.11311C37.2777 9.71022 37.3522 10.2363 37.5012 10.6912C37.6549 11.1461 37.8761 11.5016 38.1648 11.7575C38.4582 12.0134 38.8167 12.1413 39.2405 12.1413Z" fill="black"/>
<path d="M48.1724 14.7644C47.6694 14.7644 47.2387 14.5843 46.8801 14.2241C46.5262 13.864 46.3516 13.428 46.3562 12.9162C46.3516 12.4138 46.5262 11.9849 46.8801 11.6295C47.2387 11.2694 47.6694 11.0893 48.1724 11.0893C48.6473 11.0893 49.0664 11.2694 49.4297 11.6295C49.7975 11.9849 49.9838 12.4138 49.9885 12.9162C49.9838 13.2574 49.8953 13.5678 49.723 13.8474C49.5554 14.127 49.3342 14.3497 49.0595 14.5156C48.7894 14.6814 48.4937 14.7644 48.1724 14.7644Z" fill="black"/>
<path d="M0 33.7939V22.8752H3.24807V24.8798H3.36682C3.59034 24.2163 3.96753 23.6927 4.4984 23.3088C5.02927 22.9249 5.66258 22.733 6.39835 22.733C7.14342 22.733 7.78139 22.9273 8.31226 23.3159C8.84313 23.7045 9.18074 24.2258 9.3251 24.8798H9.43686C9.6371 24.2305 10.0283 23.7116 10.6104 23.323C11.1924 22.9297 11.8793 22.733 12.671 22.733C13.6861 22.733 14.5104 23.0647 15.1437 23.7282C15.777 24.3869 16.0937 25.2921 16.0937 26.4437V33.7939H12.6779V27.2398C12.6779 26.6948 12.5406 26.2802 12.2658 25.9958C11.9911 25.7067 11.6348 25.5622 11.1971 25.5622C10.7268 25.5622 10.3566 25.7186 10.0865 26.0314C9.82104 26.3394 9.68832 26.7541 9.68832 27.2754V33.7939H6.40533V27.2043C6.40533 26.6972 6.27029 26.2967 6.0002 26.0029C5.7301 25.7091 5.37387 25.5622 4.93148 25.5622C4.63344 25.5622 4.37034 25.6357 4.14216 25.7826C3.91398 25.9247 3.7347 26.1285 3.60431 26.3939C3.47858 26.6593 3.41571 26.9721 3.41571 27.3322V33.7939H0Z" fill="black"/>
<path d="M22.2419 34C21.1197 34 20.1511 33.7749 19.3361 33.3247C18.5259 32.8697 17.9019 32.2229 17.4641 31.3841C17.0311 30.5405 16.8145 29.5382 16.8145 28.3772C16.8145 27.2493 17.0334 26.2636 17.4711 25.42C17.9088 24.5717 18.5259 23.913 19.3222 23.4439C20.1185 22.97 21.0568 22.733 22.1372 22.733C22.9009 22.733 23.5994 22.8539 24.2327 23.0955C24.866 23.3372 25.4132 23.695 25.8742 24.1689C26.3352 24.6428 26.6938 25.2281 26.9499 25.9247C27.206 26.6166 27.3341 27.4104 27.3341 28.3061V29.1733H18.009V27.1545H24.1558C24.1512 26.7849 24.065 26.4555 23.8974 26.1664C23.7298 25.8773 23.4993 25.6522 23.2059 25.4911C22.9172 25.3253 22.5842 25.2423 22.207 25.2423C21.8252 25.2423 21.4829 25.33 21.1802 25.5053C20.8775 25.6759 20.6377 25.9105 20.4607 26.2091C20.2838 26.5029 20.1906 26.837 20.1813 27.2114V29.2657C20.1813 29.7112 20.2675 30.1022 20.4398 30.4386C20.6121 30.7704 20.8566 31.0286 21.1732 31.2135C21.4899 31.3983 21.8671 31.4907 22.3048 31.4907C22.6075 31.4907 22.8822 31.448 23.129 31.3627C23.3758 31.2774 23.5877 31.1519 23.7647 30.986C23.9416 30.8201 24.0744 30.6164 24.1628 30.3747L27.2991 30.4671C27.1688 31.1827 26.8824 31.8058 26.44 32.3366C26.0022 32.8626 25.4271 33.2726 24.7147 33.5664C24.0022 33.8555 23.1779 34 22.2419 34Z" fill="black"/>
<path d="M31.5108 27.5668V33.7939H28.0951V22.8752H31.3432V24.8798H31.4619C31.6994 24.2116 32.1045 23.6879 32.6773 23.3088C33.2501 22.9249 33.9323 22.733 34.7239 22.733C35.4783 22.733 36.1326 22.906 36.6868 23.2519C37.2456 23.5931 37.6786 24.0718 37.986 24.6879C38.298 25.2992 38.4517 26.0148 38.447 26.8346V33.7939H35.0313V27.517C35.0359 26.9104 34.8846 26.4365 34.5773 26.0953C34.2746 25.7541 33.8531 25.5835 33.313 25.5835C32.9544 25.5835 32.6377 25.6641 32.363 25.8252C32.0929 25.9816 31.8833 26.2067 31.7343 26.5005C31.59 26.7943 31.5155 27.1498 31.5108 27.5668Z" fill="black"/>
<path d="M43.4969 33.9502C42.7052 33.9502 41.9858 33.7417 41.3385 33.3247C40.6912 32.9077 40.1743 32.2821 39.7878 31.448C39.4013 30.614 39.208 29.5785 39.208 28.3416C39.208 27.0574 39.4083 26.0006 39.8087 25.1712C40.2092 24.3419 40.7331 23.7282 41.3804 23.3301C42.0323 22.9321 42.7332 22.733 43.4829 22.733C44.0464 22.733 44.5283 22.8325 44.9288 23.0316C45.3293 23.2259 45.6599 23.477 45.9207 23.7851C46.1815 24.0931 46.3794 24.413 46.5144 24.7447H46.5843V19.2356H50V33.7939H46.6192V32.0238H46.5144C46.3701 32.3603 46.1652 32.6754 45.8997 32.9693C45.6343 33.2631 45.3014 33.5 44.9009 33.6801C44.5051 33.8602 44.0371 33.9502 43.4969 33.9502ZM44.6843 31.2419C45.0988 31.2419 45.4527 31.1234 45.7461 30.8865C46.0395 30.6448 46.2653 30.3059 46.4236 29.87C46.582 29.434 46.6611 28.9222 46.6611 28.3345C46.6611 27.7374 46.582 27.2232 46.4236 26.792C46.27 26.3607 46.0441 26.029 45.7461 25.7968C45.4527 25.5646 45.0988 25.4485 44.6843 25.4485C44.2606 25.4485 43.902 25.5669 43.6086 25.8039C43.3153 26.0408 43.0917 26.3749 42.9381 26.8062C42.7891 27.2374 42.7145 27.7469 42.7145 28.3345C42.7145 28.9222 42.7914 29.434 42.9451 29.87C43.0987 30.3059 43.3199 30.6448 43.6086 30.8865C43.902 31.1234 44.2606 31.2419 44.6843 31.2419Z" fill="black"/>
</svg>
