<svg width="72" height="37" viewBox="0 0 72 37" fill="none" xmlns="http://www.w3.org/2000/svg">
<path d="M0.760676 15.5582V1H6.67006C7.74111 1 8.66547 1.19667 9.44315 1.59001C10.2255 1.9786 10.8285 2.53781 11.2523 3.26761C11.676 3.99268 11.8879 4.85281 11.8879 5.848C11.8879 6.85741 11.6714 7.71517 11.2383 8.42128C10.8052 9.12266 10.1906 9.65817 9.39425 10.0278C8.59795 10.3927 7.65496 10.5752 6.56529 10.5752H2.82826V7.80284H5.92266C6.44421 7.80284 6.87962 7.73413 7.22887 7.5967C7.58278 7.45453 7.85055 7.24127 8.03216 6.95693C8.21377 6.66785 8.30458 6.29821 8.30458 5.848C8.30458 5.3978 8.21377 5.02579 8.03216 4.73197C7.85055 4.43341 7.58278 4.21068 7.22887 4.06377C6.87496 3.91212 6.43956 3.8363 5.92266 3.8363H4.2183V15.5582H0.760676ZM8.81449 8.90466L12.3769 15.5582H8.60494L5.11239 8.90466H8.81449Z" fill="#0F172A"/>
<path d="M17.6049 15.7644C16.4826 15.7644 15.514 15.5393 14.6991 15.0891C13.8888 14.6341 13.2648 13.9872 12.8271 13.1484C12.394 12.3049 12.1775 11.3026 12.1775 10.1415C12.1775 9.01366 12.3963 8.02795 12.8341 7.1844C13.2718 6.33612 13.8888 5.6774 14.6851 5.20824C15.4814 4.73434 16.4197 4.49739 17.5001 4.49739C18.2638 4.49739 18.9623 4.61823 19.5956 4.85992C20.2289 5.10161 20.7761 5.4594 21.2371 5.93331C21.6981 6.40721 22.0567 6.99247 22.3128 7.68911C22.569 8.381 22.697 9.17479 22.697 10.0705V10.9377H13.3719V8.91888H19.5188C19.5141 8.54924 19.428 8.21988 19.2603 7.9308C19.0927 7.64172 18.8622 7.41661 18.5688 7.25549C18.2801 7.08962 17.9471 7.00669 17.57 7.00669C17.1881 7.00669 16.8458 7.09436 16.5431 7.26971C16.2405 7.44031 16.0006 7.67489 15.8237 7.97345C15.6467 8.26727 15.5536 8.60137 15.5443 8.97575V11.0301C15.5443 11.4756 15.6304 11.8665 15.8027 12.203C15.975 12.5347 16.2195 12.793 16.5362 12.9778C16.8528 13.1627 17.23 13.2551 17.6677 13.2551C17.9704 13.2551 18.2452 13.2124 18.492 13.1271C18.7388 13.0418 18.9507 12.9162 19.1276 12.7504C19.3046 12.5845 19.4373 12.3807 19.5258 12.139L22.6621 12.2314C22.5317 12.947 22.2453 13.5702 21.8029 14.101C21.3652 14.627 20.7901 15.0369 20.0776 15.3308C19.3651 15.6198 18.5409 15.7644 17.6049 15.7644Z" fill="#0F172A"/>
<path d="M28.4664 15.7644C27.3348 15.7644 26.3638 15.5274 25.5536 15.0535C24.748 14.5796 24.1286 13.9209 23.6955 13.0774C23.2625 12.2291 23.0459 11.2481 23.0459 10.1344C23.0459 9.01603 23.2625 8.03506 23.6955 7.19151C24.1333 6.34323 24.7549 5.68214 25.5606 5.20824C26.3708 4.73434 27.3371 4.49739 28.4594 4.49739C29.4512 4.49739 30.3151 4.67984 31.0508 5.04474C31.7913 5.40965 32.3687 5.9262 32.7831 6.5944C33.2022 7.25786 33.4234 8.03743 33.4467 8.9331H30.2545C30.1893 8.37389 30.0031 7.93554 29.6957 7.61802C29.393 7.30051 28.9972 7.14175 28.5083 7.14175C28.1124 7.14175 27.7655 7.25549 27.4675 7.48296C27.1695 7.70569 26.9366 8.03743 26.769 8.47815C26.606 8.91414 26.5245 9.45439 26.5245 10.0989C26.5245 10.7434 26.606 11.2884 26.769 11.7339C26.9366 12.1746 27.1695 12.5087 27.4675 12.7361C27.7655 12.9589 28.1124 13.0703 28.5083 13.0703C28.8249 13.0703 29.1043 13.0015 29.3465 12.8641C29.5933 12.7267 29.7958 12.5253 29.9542 12.2599C30.1125 11.9898 30.2126 11.6628 30.2545 11.2789H33.4467C33.4141 12.1793 33.1929 12.966 32.7831 13.6389C32.378 14.3119 31.8076 14.8355 31.0718 15.2099C30.3407 15.5796 29.4722 15.7644 28.4664 15.7644Z" fill="#0F172A"/>
<path d="M39.2196 15.7644C38.0926 15.7644 37.124 15.5298 36.3138 15.0606C35.5081 14.5867 34.8865 13.928 34.4487 13.0845C34.0157 12.2362 33.7991 11.2528 33.7991 10.1344C33.7991 9.01129 34.0157 8.02795 34.4487 7.1844C34.8865 6.33612 35.5081 5.6774 36.3138 5.20824C37.124 4.73434 38.0926 4.49739 39.2196 4.49739C40.3465 4.49739 41.3128 4.73434 42.1184 5.20824C42.9286 5.6774 43.5503 6.33612 43.9834 7.1844C44.4211 8.02795 44.64 9.01129 44.64 10.1344C44.64 11.2528 44.4211 12.2362 43.9834 13.0845C43.5503 13.928 42.9286 14.5867 42.1184 15.0606C41.3128 15.5298 40.3465 15.7644 39.2196 15.7644ZM39.2405 13.1413C39.6503 13.1413 39.9972 13.0134 40.2813 12.7575C40.5653 12.5016 40.7819 12.1461 40.9309 11.6912C41.0846 11.2363 41.1614 10.7102 41.1614 10.1131C41.1614 9.50652 41.0846 8.97575 40.9309 8.5208C40.7819 8.06586 40.5653 7.71043 40.2813 7.45453C39.9972 7.19862 39.6503 7.07067 39.2405 7.07067C38.8167 7.07067 38.4582 7.19862 38.1648 7.45453C37.8761 7.71043 37.6549 8.06586 37.5012 8.5208C37.3522 8.97575 37.2777 9.50652 37.2777 10.1131C37.2777 10.7102 37.3522 11.2363 37.5012 11.6912C37.6549 12.1461 37.8761 12.5016 38.1648 12.7575C38.4582 13.0134 38.8167 13.1413 39.2405 13.1413Z" fill="#0F172A"/>
<path d="M48.1724 15.7644C47.6694 15.7644 47.2387 15.5843 46.8801 15.2241C46.5262 14.864 46.3516 14.428 46.3562 13.9162C46.3516 13.4138 46.5262 12.9849 46.8801 12.6295C47.2387 12.2694 47.6694 12.0893 48.1724 12.0893C48.6473 12.0893 49.0664 12.2694 49.4297 12.6295C49.7975 12.9849 49.9838 13.4138 49.9885 13.9162C49.9838 14.2574 49.8953 14.5678 49.723 14.8474C49.5554 15.127 49.3342 15.3497 49.0595 15.5156C48.7894 15.6814 48.4937 15.7644 48.1724 15.7644Z" fill="#0F172A"/>
<path d="M0 34.7939V23.8752H3.24807V25.8798H3.36682C3.59034 25.2163 3.96753 24.6927 4.4984 24.3088C5.02927 23.9249 5.66258 23.733 6.39835 23.733C7.14342 23.733 7.78139 23.9273 8.31226 24.3159C8.84313 24.7045 9.18074 25.2258 9.3251 25.8798H9.43686C9.6371 25.2305 10.0283 24.7116 10.6104 24.323C11.1924 23.9297 11.8793 23.733 12.671 23.733C13.6861 23.733 14.5104 24.0647 15.1437 24.7282C15.777 25.3869 16.0937 26.2921 16.0937 27.4437V34.7939H12.6779V28.2398C12.6779 27.6948 12.5406 27.2802 12.2658 26.9958C11.9911 26.7067 11.6348 26.5622 11.1971 26.5622C10.7268 26.5622 10.3566 26.7186 10.0865 27.0314C9.82104 27.3394 9.68832 27.7541 9.68832 28.2754V34.7939H6.40533V28.2043C6.40533 27.6972 6.27029 27.2967 6.0002 27.0029C5.7301 26.7091 5.37387 26.5622 4.93148 26.5622C4.63344 26.5622 4.37034 26.6357 4.14216 26.7826C3.91398 26.9247 3.7347 27.1285 3.60431 27.3939C3.47858 27.6593 3.41571 27.9721 3.41571 28.3322V34.7939H0Z" fill="#0F172A"/>
<path d="M22.2419 35C21.1197 35 20.1511 34.7749 19.3361 34.3247C18.5259 33.8697 17.9019 33.2229 17.4641 32.3841C17.0311 31.5405 16.8145 30.5382 16.8145 29.3772C16.8145 28.2493 17.0334 27.2636 17.4711 26.42C17.9088 25.5717 18.5259 24.913 19.3222 24.4439C20.1185 23.97 21.0568 23.733 22.1372 23.733C22.9009 23.733 23.5994 23.8539 24.2327 24.0955C24.866 24.3372 25.4132 24.695 25.8742 25.1689C26.3352 25.6428 26.6938 26.2281 26.9499 26.9247C27.206 27.6166 27.3341 28.4104 27.3341 29.3061V30.1733H18.009V28.1545H24.1558C24.1512 27.7849 24.065 27.4555 23.8974 27.1664C23.7298 26.8773 23.4993 26.6522 23.2059 26.4911C22.9172 26.3253 22.5842 26.2423 22.207 26.2423C21.8252 26.2423 21.4829 26.33 21.1802 26.5053C20.8775 26.6759 20.6377 26.9105 20.4607 27.2091C20.2838 27.5029 20.1906 27.837 20.1813 28.2114V30.2657C20.1813 30.7112 20.2675 31.1022 20.4398 31.4386C20.6121 31.7704 20.8566 32.0286 21.1732 32.2135C21.4899 32.3983 21.8671 32.4907 22.3048 32.4907C22.6075 32.4907 22.8822 32.448 23.129 32.3627C23.3758 32.2774 23.5877 32.1519 23.7647 31.986C23.9416 31.8201 24.0744 31.6164 24.1628 31.3747L27.2991 31.4671C27.1688 32.1827 26.8824 32.8058 26.44 33.3366C26.0022 33.8626 25.4271 34.2726 24.7147 34.5664C24.0022 34.8555 23.1779 35 22.2419 35Z" fill="#0F172A"/>
<path d="M31.5108 28.5668V34.7939H28.0951V23.8752H31.3432V25.8798H31.4619C31.6994 25.2116 32.1045 24.6879 32.6773 24.3088C33.2501 23.9249 33.9323 23.733 34.7239 23.733C35.4783 23.733 36.1326 23.906 36.6868 24.2519C37.2456 24.5931 37.6786 25.0718 37.986 25.6879C38.298 26.2992 38.4517 27.0148 38.447 27.8346V34.7939H35.0313V28.517C35.0359 27.9104 34.8846 27.4365 34.5773 27.0953C34.2746 26.7541 33.8531 26.5835 33.313 26.5835C32.9544 26.5835 32.6377 26.6641 32.363 26.8252C32.0929 26.9816 31.8833 27.2067 31.7343 27.5005C31.59 27.7943 31.5155 28.1498 31.5108 28.5668Z" fill="#0F172A"/>
<path d="M43.4969 34.9502C42.7052 34.9502 41.9858 34.7417 41.3385 34.3247C40.6912 33.9077 40.1743 33.2821 39.7878 32.448C39.4013 31.614 39.208 30.5785 39.208 29.3416C39.208 28.0574 39.4083 27.0006 39.8087 26.1712C40.2092 25.3419 40.7331 24.7282 41.3804 24.3301C42.0323 23.9321 42.7332 23.733 43.4829 23.733C44.0464 23.733 44.5283 23.8325 44.9288 24.0316C45.3293 24.2259 45.6599 24.477 45.9207 24.7851C46.1815 25.0931 46.3794 25.413 46.5144 25.7447H46.5843V20.2356H50V34.7939H46.6192V33.0238H46.5144C46.3701 33.3603 46.1652 33.6754 45.8997 33.9693C45.6343 34.2631 45.3014 34.5 44.9009 34.6801C44.5051 34.8602 44.0371 34.9502 43.4969 34.9502ZM44.6843 32.2419C45.0988 32.2419 45.4527 32.1234 45.7461 31.8865C46.0395 31.6448 46.2653 31.3059 46.4236 30.87C46.582 30.434 46.6611 29.9222 46.6611 29.3345C46.6611 28.7374 46.582 28.2232 46.4236 27.792C46.27 27.3607 46.0441 27.029 45.7461 26.7968C45.4527 26.5646 45.0988 26.4485 44.6843 26.4485C44.2606 26.4485 43.902 26.5669 43.6086 26.8039C43.3153 27.0408 43.0917 27.3749 42.9381 27.8062C42.7891 28.2374 42.7145 28.7469 42.7145 29.3345C42.7145 29.9222 42.7914 30.434 42.9451 30.87C43.0987 31.3059 43.3199 31.6448 43.6086 31.8865C43.902 32.1234 44.2606 32.2419 44.6843 32.2419Z" fill="#0F172A"/>
<path d="M60 6.97543L65.8182 6.97543L65.8182 9.2027C65.8182 9.62315 65.7519 9.97259 65.6193 10.251C65.4886 10.5313 65.3097 10.7406 65.0824 10.8788C64.8551 11.019 64.5975 11.0891 64.3097 11.0891C64.0729 11.0891 63.8703 11.0436 63.7017 10.9527C63.535 10.8618 63.3996 10.7396 63.2955 10.5862C63.1913 10.4328 63.1165 10.2614 63.071 10.072L63.0142 10.072C63.0028 10.2785 62.9394 10.4764 62.8239 10.6658C62.7102 10.8571 62.5492 11.0133 62.3409 11.1345C62.1326 11.2557 61.8807 11.3163 61.5852 11.3163C61.2841 11.3163 61.0133 11.2434 60.7727 11.0976C60.5341 10.9518 60.3456 10.7321 60.2074 10.4385C60.0691 10.1449 60 9.77562 60 9.33054L60 6.97543ZM60.8807 8.0294L60.8807 9.16293C60.8807 9.5455 60.9536 9.82107 61.0994 9.98963C61.2472 10.1601 61.4366 10.2453 61.6676 10.2453C61.84 10.2453 61.9953 10.2027 62.1335 10.1175C62.2737 10.0322 62.3835 9.91103 62.4631 9.75384C62.5445 9.59664 62.5852 9.40914 62.5852 9.19134L62.5852 8.0294L60.8807 8.0294ZM63.3437 8.0294L63.3437 9.07202C63.3437 9.25384 63.3769 9.41766 63.4432 9.56349C63.5114 9.70933 63.607 9.82391 63.7301 9.90724C63.8551 9.99247 64.0028 10.0351 64.1733 10.0351C64.3987 10.0351 64.5843 9.95554 64.7301 9.79645C64.8759 9.63925 64.9489 9.40535 64.9489 9.09474L64.9489 8.0294L63.3437 8.0294ZM60 13.0332L65.8182 13.0332L65.8182 14.0872L60.8835 14.0872L60.8835 16.6497L60 16.6497L60 13.0332ZM62.9091 23.3368C62.2822 23.3368 61.7453 23.2194 61.2983 22.9845C60.8532 22.7516 60.5123 22.4334 60.2756 22.03C60.0388 21.6285 59.9205 21.173 59.9205 20.6635C59.9205 20.154 60.0388 19.6976 60.2756 19.2942C60.5142 18.8927 60.8561 18.5745 61.3011 18.3396C61.7481 18.1067 62.2841 17.9902 62.9091 17.9902C63.536 17.9902 64.072 18.1067 64.517 18.3396C64.964 18.5745 65.3059 18.8927 65.5426 19.2942C65.7794 19.6976 65.8977 20.154 65.8977 20.6635C65.8977 21.173 65.7794 21.6285 65.5426 22.03C65.3059 22.4334 64.964 22.7516 64.517 22.9845C64.072 23.2194 63.536 23.3368 62.9091 23.3368ZM62.9091 22.2771C63.3504 22.2771 63.7225 22.208 64.0256 22.0697C64.3305 21.9334 64.5606 21.744 64.7159 21.5016C64.8731 21.2591 64.9517 20.9798 64.9517 20.6635C64.9517 20.3472 64.8731 20.0679 64.7159 19.8254C64.5606 19.583 64.3305 19.3927 64.0256 19.2544C63.7225 19.118 63.3504 19.0499 62.9091 19.0499C62.4678 19.0499 62.0947 19.118 61.7898 19.2544C61.4867 19.3927 61.2566 19.583 61.0994 19.8254C60.9441 20.0679 60.8665 20.3472 60.8665 20.6635C60.8665 20.9798 60.9441 21.2591 61.0994 21.5016C61.2566 21.744 61.4867 21.9334 61.7898 22.0697C62.0947 22.208 62.4678 22.2771 62.9091 22.2771ZM63.9602 29.031C64.1136 28.9836 64.2509 28.9183 64.3722 28.8349C64.4953 28.7535 64.6004 28.655 64.6875 28.5395C64.7746 28.4259 64.84 28.2952 64.8835 28.1474C64.929 27.9997 64.9517 27.8387 64.9517 27.6645C64.9517 27.352 64.8731 27.0736 64.7159 26.8293C64.5587 26.5849 64.3277 26.3927 64.0227 26.2526C63.7197 26.1143 63.3504 26.0452 62.9148 26.0452C62.4754 26.0452 62.1032 26.1143 61.7983 26.2526C61.4934 26.3908 61.2614 26.583 61.1023 26.8293C60.9451 27.0755 60.8665 27.3615 60.8665 27.6872C60.8665 27.9827 60.9233 28.2384 61.0369 28.4543C61.1506 28.6721 61.3116 28.8397 61.5199 28.9571C61.7301 29.0745 61.9763 29.1332 62.2585 29.1332L62.2216 29.3719L62.2216 27.7923L63.0455 27.7923L63.0455 30.1531L62.3466 30.1531C61.8485 30.1531 61.4176 30.0471 61.054 29.8349C60.6903 29.6228 60.41 29.3312 60.2131 28.9599C60.018 28.5887 59.9205 28.1626 59.9205 27.6815C59.9205 27.1455 60.0407 26.6749 60.2812 26.2696C60.5237 25.8662 60.8674 25.5509 61.3125 25.3236C61.7595 25.0982 62.2898 24.9855 62.9034 24.9855C63.3731 24.9855 63.7926 25.0518 64.1619 25.1844C64.5312 25.3188 64.8447 25.5063 65.1023 25.7469C65.3617 25.9874 65.5587 26.2696 65.6932 26.5935C65.8295 26.9173 65.8977 27.2696 65.8977 27.6503C65.8977 27.9723 65.8504 28.2724 65.7557 28.5509C65.6629 28.8293 65.5303 29.0764 65.358 29.2923C65.1856 29.5101 64.9811 29.6891 64.7443 29.8293C64.5076 29.9694 64.2462 30.0613 63.9602 30.1048L63.9602 29.031Z" fill="black"/>
<rect x="71.5" y="0.5" width="36" height="17" rx="3.5" transform="rotate(90 71.5 0.5)" stroke="#1E293B"/>
</svg>
